<svg xmlns="http://www.w3.org/2000/svg" xmlns:xlink="http://www.w3.org/1999/xlink" viewBox="0,0,256,256" width="50px" height="50px" fill-rule="nonzero"><g fill="#ffffff" fill-rule="nonzero" stroke="none" stroke-width="1" stroke-linecap="butt" stroke-linejoin="miter" stroke-miterlimit="10" stroke-dasharray="" stroke-dashoffset="0" font-family="none" font-weight="none" font-size="none" text-anchor="none" style="mix-blend-mode: normal"><g transform="scale(5.12,5.12)"><path d="M14,8c-5.51562,0 -10,4.48438 -10,10c0,0.99219 0.14844,1.97266 0.44141,2.92578c-2.16797,1.69922 -3.44141,4.29297 -3.44141,7.07422c0,5.26563 4.58594,9.51563 9.92188,8.95313c1.49609,3.04688 4.64844,5.04688 8.07813,5.04688c3.21094,0 6.16016,-1.72266 7.76563,-4.45703c0.87891,0.30469 1.79688,0.45703 2.73438,0.45703c2.99609,0 5.71484,-1.54297 7.25,-4.07812c0.42969,0.05469 0.83984,0.07813 1.25,0.07813c6.06641,0 11,-4.93359 11,-11c0,-6.06641 -4.93359,-11 -11,-11c-1.22266,0 -2.41797,0.19922 -3.5625,0.59375c-1.58594,-2.23437 -4.16797,-3.59375 -6.9375,-3.59375c-2.26562,0 -4.375,0.875 -5.95312,2.44141c-1.89062,-2.17578 -4.625,-3.44141 -7.54687,-3.44141zM16.11328,19.80078h0.71094c0.15234,0 0.27344,0.125 0.27344,0.28125v5.83594c0,0.16016 -0.12109,0.28125 -0.27344,0.28125h-0.71094c-0.15234,0 -0.27344,-0.12109 -0.27344,-0.28125v-5.83594c0,-0.15625 0.12109,-0.28125 0.27344,-0.28125zM28.57813,19.91406c0.14453,0 0.26953,0.00781 0.37891,0.02734c0.10547,0.01953 0.1875,0.03906 0.27734,0.06641l0.00781,0.00391c0.09375,0.03906 0.13672,0.125 0.10156,0.21875l-0.20312,0.5625c-0.02734,0.06641 -0.08203,0.14844 -0.23828,0.09766c-0.02344,-0.00391 -0.05859,-0.01562 -0.125,-0.03125c-0.03516,-0.00391 -0.11328,-0.01562 -0.19922,-0.01562c-0.09766,0 -0.18359,0.01172 -0.25781,0.03516c-0.06641,0.02344 -0.12891,0.0625 -0.18359,0.11719c-0.07812,0.07813 -0.13281,0.16016 -0.16406,0.24219c-0.05078,0.14453 -0.09375,0.36719 -0.13281,0.65625h0.73438c0.0625,0 0.11328,0.01953 0.14453,0.05859c0.02344,0.02344 0.05078,0.07031 0.04297,0.14063l-0.10547,0.55859c-0.01562,0.125 -0.11328,0.16016 -0.1875,0.16016h-0.78906l-0.58594,3.31641c-0.06641,0.36328 -0.14844,0.67188 -0.23828,0.91797c-0.10547,0.27344 -0.21484,0.45313 -0.36719,0.625c-0.16016,0.17578 -0.33984,0.30078 -0.53516,0.37109c-0.19531,0.07031 -0.42578,0.10547 -0.6875,0.10547c-0.12891,0 -0.25781,-0.00391 -0.41016,-0.03906c-0.11328,-0.02734 -0.17578,-0.04297 -0.25781,-0.07422c-0.07812,-0.03125 -0.14062,-0.125 -0.10156,-0.23437c0.01953,-0.05078 0.17969,-0.48437 0.19922,-0.54297c0.04297,-0.10547 0.14453,-0.13281 0.22656,-0.10156c0.04688,0.01953 0.07422,0.03125 0.125,0.04297c0.05859,0.00781 0.13672,0.01953 0.19531,0.01953c0.10547,0 0.20313,-0.01172 0.28516,-0.03906c0.08203,-0.02734 0.13281,-0.07422 0.19141,-0.15234c0.0625,-0.07812 0.11328,-0.1875 0.17188,-0.35547c0.05859,-0.15625 0.10938,-0.37109 0.15625,-0.64062l0.57813,-3.21875h-0.46875c-0.06641,0 -0.11719,-0.01953 -0.15234,-0.05859c-0.01953,-0.02734 -0.04297,-0.07031 -0.03516,-0.14453l0.09766,-0.55469c0.02734,-0.12109 0.13672,-0.15625 0.19531,-0.16016h0.51563l0.03516,-0.28125c0.09766,-0.55469 0.28516,-0.98047 0.5625,-1.26562c0.28906,-0.28516 0.69141,-0.43359 1.20313,-0.43359zM16.82422,20c0.04297,0 0.07422,0.03516 0.07422,0.08203c0,-0.04687 -0.03125,-0.08203 -0.07422,-0.08203zM9.46094,21.79688l0.09375,0.00391h0.00391c0.51172,0 1.04297,0.12891 1.44922,0.35938c0.12891,0.07031 0.1875,0.21484 0.13281,0.34766c-0.01562,0.04297 -0.17578,0.43359 -0.19141,0.47656c-0.04297,0.10547 -0.13672,0.17188 -0.24609,0.17188c-0.07812,0 -0.14062,-0.03516 -0.15625,-0.04297c-0.30078,-0.15234 -0.75781,-0.25781 -1.10937,-0.25781c-0.23437,0 -0.39844,0.08984 -0.39844,0.23438c0,0.13672 0.40234,0.25781 0.72656,0.35156l0.08203,0.02734c0.49609,0.14453 1.42578,0.41406 1.42578,1.32422c0,0.85547 -0.67969,1.40625 -1.73047,1.40625c-0.56641,0 -1.01562,-0.09766 -1.46875,-0.32031l-0.05078,-0.02344c-0.07813,-0.04297 -0.15234,-0.08203 -0.25391,-0.15234c-0.09375,-0.07812 -0.12109,-0.19531 -0.07031,-0.3125l0.18359,-0.47266c0.04297,-0.11719 0.14063,-0.1875 0.25781,-0.1875c0.0625,0 0.12109,0.01953 0.15234,0.03906l0.06641,0.04297l0.09375,0.04688c0.33594,0.19922 0.71094,0.29688 1.11328,0.29688c0.27734,0 0.46484,-0.10937 0.46484,-0.28516c0,-0.14453 -0.37109,-0.24609 -0.70312,-0.33984l-0.09375,-0.02734c-0.50391,-0.13281 -1.4375,-0.37891 -1.4375,-1.33203c0,-0.80859 0.68359,-1.375 1.66406,-1.375zM23.91797,21.79688h0.00391c0.51172,0 1.03906,0.13281 1.44922,0.35938c0.12891,0.07422 0.18359,0.21875 0.13281,0.34766c-0.01562,0.04688 -0.17578,0.43359 -0.19141,0.48047c-0.04687,0.10156 -0.14062,0.16797 -0.25,0.16797c-0.07812,0 -0.14062,-0.03125 -0.15625,-0.03906c-0.30078,-0.15234 -0.75391,-0.25781 -1.10547,-0.25781c-0.23828,0 -0.40234,0.08984 -0.40234,0.23438c0,0.13672 0.40625,0.25391 0.72656,0.35156l0.08203,0.02734c0.49609,0.14453 1.42969,0.41406 1.42969,1.32422c0,0.85547 -0.67969,1.40625 -1.73047,1.40625c-0.56641,0 -1.01953,-0.09766 -1.46875,-0.32031l-0.05469,-0.02344c-0.07812,-0.04297 -0.15234,-0.08203 -0.25391,-0.15234c-0.09375,-0.07812 -0.11719,-0.19531 -0.06641,-0.3125l0.18359,-0.46875c0.03906,-0.11719 0.13672,-0.1875 0.25781,-0.1875c0.05469,0 0.11328,0.01172 0.18359,0.05469c0.03516,0.02344 0.07031,0.04297 0.125,0.07422c0.33984,0.19531 0.71484,0.29297 1.11719,0.29297c0.27734,0 0.46484,-0.10547 0.46484,-0.28125c0,-0.14453 -0.375,-0.25 -0.70312,-0.34375l-0.09766,-0.02734c-0.5,-0.13281 -1.4375,-0.37891 -1.4375,-1.33203c0,-0.80859 0.6875,-1.37109 1.66797,-1.37109zM37.92188,21.80078c0.23047,0 0.44141,0.01172 0.62109,0.03906c0.19141,0.02344 0.44922,0.08984 0.56641,0.13281c0.07422,0.02734 0.13281,0.07813 0.16016,0.14063l0.03906,0.125l-0.03125,0.07813c-0.05469,0.14453 -0.09375,0.25 -0.14062,0.36719l-0.05469,0.13281c-0.04297,0.11328 -0.14062,0.18359 -0.25391,0.18359l-0.05078,-0.00391l-0.02734,-0.01172c-0.24609,-0.07031 -0.48047,-0.09766 -0.77734,-0.09766c-0.32812,0 -0.5625,0.08984 -0.71875,0.28125c-0.17187,0.21094 -0.25781,0.48438 -0.25781,0.83594c0,0.38281 0.09375,0.67969 0.27734,0.85547c0.17969,0.16797 0.43359,0.25391 0.76172,0.25391c0.14453,0 0.28125,-0.00781 0.40234,-0.02344c0.10156,-0.01562 0.19922,-0.04297 0.32813,-0.08984l0.0625,-0.01562h0.03516c0.12109,0 0.21875,0.07031 0.25781,0.17578l0.19141,0.49219c0.0625,0.15625 -0.02344,0.29297 -0.15234,0.35156c-0.33594,0.12109 -0.77734,0.19531 -1.17969,0.19531c-0.74219,0 -1.3125,-0.20312 -1.69922,-0.60547c-0.38672,-0.39453 -0.58203,-0.92969 -0.58203,-1.58984c0,-0.30469 0.04688,-0.59375 0.14063,-0.85156c0.09375,-0.27344 0.23828,-0.50781 0.42578,-0.70703c0.19141,-0.19922 0.42969,-0.35937 0.70313,-0.47266c0.27734,-0.11328 0.59766,-0.17187 0.95313,-0.17187zM13.56641,21.89844c0.55859,0 0.99219,0.125 1.28906,0.36719c0.30469,0.24609 0.46094,0.64063 0.46094,1.16797v2.25781c0.00781,0.06641 -0.03516,0.15625 -0.13281,0.17969c0,0 -0.10156,0.02344 -0.19141,0.04297c-0.08594,0.01953 -0.40625,0.07813 -0.67578,0.12109c-0.27344,0.04297 -0.55078,0.0625 -0.82812,0.0625c-0.26562,0 -0.50781,-0.01953 -0.72266,-0.06641c-0.22656,-0.04687 -0.42187,-0.125 -0.57812,-0.23437c-0.16406,-0.10547 -0.29297,-0.25 -0.38281,-0.42187c-0.08984,-0.16797 -0.13281,-0.375 -0.13281,-0.60937c0,-0.23437 0.05078,-0.44141 0.15625,-0.62109c0.10156,-0.17578 0.24219,-0.32422 0.41797,-0.44141c0.17188,-0.11328 0.36719,-0.19922 0.58594,-0.25c0.21484,-0.05469 0.44531,-0.08203 0.68359,-0.08203c0.17188,0 0.3125,0.00391 0.42188,0.01172c0,0 0.14844,0.01172 0.33203,0.03516c-0.00391,-0.3125 -0.07031,-0.42578 -0.17578,-0.5c-0.13281,-0.09375 -0.33594,-0.14062 -0.60547,-0.14062h-0.00391c-0.05078,0 -0.64453,0.00391 -1.10937,0.23828c-0.02734,0.01953 -0.05859,0.02734 -0.05859,0.02734c-0.07422,0.02344 -0.17578,0 -0.21094,-0.10156l-0.1875,-0.46875c-0.04687,-0.10547 0.01172,-0.19141 0.06641,-0.22266c0.24219,-0.17578 0.82813,-0.28125 0.85547,-0.28516c0.20703,-0.03906 0.53516,-0.06641 0.72656,-0.06641zM19.84375,21.90234c0.27344,0 0.55469,0.05078 0.80078,0.14844c0.17969,0.07031 0.35547,0.19531 0.53906,0.38281c0.12891,0.12891 0.30078,0.38281 0.36719,0.61719c0.14063,0.46484 0.11328,0.88672 0.08594,1.09375c-0.01562,0.11328 -0.10547,0.16406 -0.18359,0.16797l-2.55859,-0.00391c0.02734,0.29688 0.11719,0.50391 0.27344,0.64844c0.1875,0.17188 0.47656,0.26563 0.84375,0.26563h0.01172c0.55078,0 0.80859,-0.08984 0.99609,-0.16016l0.05469,-0.01562c0.07813,-0.02734 0.1875,-0.00391 0.22656,0.09766l0.17578,0.45313c0.04688,0.10547 0.01953,0.19922 -0.07031,0.24609c-0.1875,0.09766 -0.61328,0.25391 -1.39062,0.25781h-0.01172c-0.375,0 -0.70703,-0.05078 -0.98828,-0.15234c-0.28516,-0.10156 -0.52344,-0.25 -0.70703,-0.43359c-0.1875,-0.19141 -0.32422,-0.41406 -0.41016,-0.66797c-0.08594,-0.24609 -0.12891,-0.52344 -0.12891,-0.82031c0,-0.29297 0.04297,-0.57031 0.12109,-0.82422c0.08203,-0.25391 0.21094,-0.48047 0.38281,-0.67578c0.17188,-0.19141 0.39063,-0.34766 0.64844,-0.46094c0.25781,-0.10937 0.56641,-0.16406 0.92188,-0.16406zM30.65625,21.90234c0.33203,0 0.63281,0.05469 0.88672,0.16406c0.25391,0.10938 0.46875,0.26172 0.64063,0.44922c0.16797,0.19141 0.29688,0.41797 0.37891,0.67188c0.07813,0.25391 0.12109,0.52734 0.12109,0.81641c0,0.28906 -0.04297,0.5625 -0.12109,0.8125c-0.08203,0.25781 -0.21094,0.48438 -0.37891,0.67188c-0.17578,0.19141 -0.39062,0.34375 -0.64062,0.44922c-0.25781,0.10938 -0.55469,0.16016 -0.88672,0.16016c-0.33203,0 -0.62891,-0.05078 -0.88281,-0.16016c-0.25391,-0.10547 -0.46875,-0.25781 -0.64062,-0.44922c-0.17187,-0.1875 -0.29687,-0.41406 -0.37891,-0.67187c-0.07812,-0.25 -0.12109,-0.52344 -0.12109,-0.8125c0,-0.28906 0.04297,-0.5625 0.12109,-0.81641c0.08203,-0.25391 0.20703,-0.48047 0.37891,-0.67187c0.16797,-0.1875 0.38281,-0.33984 0.63672,-0.44922c0.25781,-0.10937 0.55469,-0.16406 0.88672,-0.16406zM41.35547,21.90234c0.27344,0 0.55078,0.05078 0.80078,0.14844c0.17578,0.07422 0.35156,0.19531 0.53516,0.38281c0.13281,0.12891 0.30078,0.38281 0.37109,0.61719c0.14844,0.49219 0.10547,0.93359 0.07813,1.10156c-0.01172,0.10156 -0.09375,0.16016 -0.17187,0.16016l-2.5625,-0.00391c0.02734,0.29688 0.11328,0.50391 0.26953,0.64453c0.1875,0.17578 0.48047,0.26563 0.84375,0.26563h0.01172c0.55469,0 0.8125,-0.08984 1,-0.15625l0.05469,-0.01562c0.07813,-0.02734 0.18359,-0.00391 0.22656,0.09766l0.17188,0.45313c0.04688,0.10156 0.02344,0.19531 -0.06641,0.24609c-0.1875,0.09375 -0.61328,0.25391 -1.39062,0.25391h-0.01172c-0.37891,0 -0.71094,-0.04687 -0.98828,-0.14844c-0.28516,-0.10156 -0.52344,-0.25 -0.71094,-0.43359c-0.1875,-0.19141 -0.32031,-0.41406 -0.41016,-0.67187c-0.08203,-0.24219 -0.125,-0.51953 -0.125,-0.81641c0,-0.29297 0.04297,-0.57031 0.12109,-0.82422c0.08203,-0.25391 0.21094,-0.48437 0.37891,-0.67578c0.17578,-0.19531 0.39453,-0.34766 0.65234,-0.46094c0.25391,-0.10937 0.5625,-0.16406 0.92188,-0.16406zM35.28125,21.90234c0.17969,0.01172 0.41406,0.05859 0.47266,0.08203c0.07813,0.02344 0.13672,0.10938 0.10547,0.21484v0.00391c-0.02734,0.06641 -0.15625,0.42188 -0.20312,0.53516c-0.05469,0.13281 -0.16406,0.13672 -0.20312,0.13672c-0.01562,-0.00391 -0.15625,-0.03516 -0.28125,-0.03516c-0.11328,0 -0.23437,0.01563 -0.32812,0.04297c-0.10937,0.03125 -0.20703,0.08984 -0.29297,0.16797c-0.08594,0.07813 -0.15234,0.19141 -0.20703,0.33594c-0.05078,0.14063 -0.08203,0.375 -0.08203,0.63281v1.90234c0,0.09766 -0.08203,0.17578 -0.18359,0.17578h-0.69922c-0.09766,0 -0.17969,-0.07812 -0.17969,-0.17578v-3.80859c0,-0.09766 0.07813,-0.17578 0.17578,-0.17578h0.68359c0.09766,0 0.17578,0.07813 0.17578,0.17578v0.08203c0.09375,-0.06641 0.19922,-0.12891 0.3125,-0.17969c0.16797,-0.07031 0.36719,-0.13281 0.73438,-0.11328zM9.55859,22c0.25391,0 0.50391,0.03516 0.73438,0.09375c-0.23047,-0.05859 -0.48047,-0.09375 -0.73437,-0.09375zM19.78125,22.75391c-0.30859,0 -0.53125,0.10547 -0.68359,0.32031c-0.07812,0.10938 -0.13672,0.25 -0.17578,0.42188l1.67188,0.00391c-0.02734,-0.1875 -0.07422,-0.32422 -0.14844,-0.42578c-0.15625,-0.22266 -0.36328,-0.32031 -0.66406,-0.32031zM41.28906,22.75391c-0.30859,0 -0.53125,0.10547 -0.67969,0.32031c-0.08203,0.10938 -0.14062,0.25 -0.17578,0.42188l1.66797,0.00391c-0.02344,-0.18359 -0.07422,-0.32422 -0.14844,-0.42578c-0.15625,-0.22266 -0.36328,-0.32031 -0.66406,-0.32031zM30.65625,22.76953c-0.31641,0 -0.53516,0.09766 -0.68359,0.30469c-0.14844,0.21484 -0.22656,0.52734 -0.22656,0.92969c0,0.40234 0.07813,0.71875 0.23047,0.93359c0.14453,0.21094 0.36328,0.30859 0.67969,0.30859c0.32031,0 0.53906,-0.09766 0.6875,-0.30859c0.15625,-0.21875 0.23438,-0.53125 0.23438,-0.93359c0,-0.40234 -0.07812,-0.71484 -0.23437,-0.92969c-0.14844,-0.20703 -0.36719,-0.30469 -0.6875,-0.30469zM38.80469,22.79688c0,0 0.00781,0 0.02344,0c-0.01172,0 -0.02344,0 -0.02344,0zM10.76563,22.90625c-0.01953,0.03906 -0.04687,0.04688 -0.07422,0.04688c0.00391,0 0.00391,0 0.01172,0c0.02344,0 0.04688,-0.01172 0.0625,-0.04687zM25.125,22.90625c-0.01562,0.03906 -0.04297,0.04688 -0.07031,0.04688c0.00391,0 0.00391,0 0.00781,0c0.02344,0 0.05078,-0.01172 0.0625,-0.04687zM22.5,23.69141c0.08984,0.13672 0.21875,0.24219 0.36328,0.32813c-0.14453,-0.08594 -0.27344,-0.19141 -0.36328,-0.32812zM13.61328,24.19141c-0.36328,0 -0.57031,0.09375 -0.64453,0.13672l-0.04297,0.02734c-0.12891,0.08594 -0.19141,0.21094 -0.19141,0.39453c0,0.11719 0.02344,0.20703 0.0625,0.26563c0.03125,0.04297 0.03906,0.05469 0.13281,0.12109l0.00391,0.00391c0.01563,0.01172 0.23438,0.14453 0.71094,0.12109c0.26172,-0.01562 0.50391,-0.05078 0.625,-0.07422v-0.95312c-0.12109,-0.01172 -0.36328,-0.03906 -0.625,-0.04297zM38.86328,25.18359c-0.01953,0 -0.03125,0.00391 -0.03125,0.00391c0,0 0.01563,0 0.03125,0zM16.89844,25.91797c0,0.04688 -0.03125,0.08203 -0.07422,0.08203c0.04297,0 0.07422,-0.03516 0.07422,-0.08203z"></path></g></g></svg>